<svg width="591" height="708" viewBox="0 0 591 708" fill="none" xmlns="http://www.w3.org/2000/svg">
<path d="M190.367 707.7C147.91 689.357 108.181 642.736 108.086 595.033C107.971 543.025 140.946 498.869 181.958 469.851C177.028 488.471 174.339 505.502 186.554 522.156C197.909 537.64 217.797 545.164 236.577 541.081C280.456 531.479 282.47 483.264 256.456 455.173C230.736 427.355 205.855 395.934 215.645 355.593C220.546 335.37 232.969 316.428 248.706 302.888C236.609 334.662 270.984 365.997 293.632 381.606C332.919 408.686 376.025 429.151 412.149 460.896C450.146 494.258 478.206 539.368 472.54 591.687C466.4 648.396 421.316 687.836 370.748 707.748C477.607 684.174 588.02 601.277 590.283 482.822C592.156 385.369 525.272 310.371 442.42 267.433L438.091 265.071C440.365 270.586 441.109 275.277 441.023 279.477C441.765 276.38 442.269 273.197 442.411 269.914C442.391 273.814 441.881 277.697 440.893 281.471L441.023 279.477C439.793 284.65 437.721 289.587 434.889 294.089L436.105 292.782C419.576 320.185 374.827 326.136 352.722 297.761C317.185 252.118 353.466 202.907 358.542 154.573C364.895 93.9975 326.889 35.1909 279.766 0C305.72 41.9654 271.526 97.4855 244.17 128.525C217.643 158.612 185.383 183.734 156.099 211.071C124.642 240.433 94.4006 271.363 68.5442 305.825C16.8314 374.802 -14.8272 461.554 8.43794 547.606C31.6882 633.599 106.213 688.34 190.37 707.697L190.367 707.7Z" fill="#EE4323"/>
</svg>
